<svg preserveAspectRatio="none" width="100%" height="100%" overflow="visible" style="display: block;" viewBox="0 0 21.9821 21.9821" fill="none" xmlns="http://www.w3.org/2000/svg">
<g id="IconBase">
<path id="Vector" d="M5.49552 14.6547C5.49552 13.7388 5.95349 13.1893 6.31985 12.7313C6.68622 12.2733 6.86941 11.8154 6.86941 11.1742V9.15921C6.86941 8.06608 7.30365 7.01772 8.07661 6.24477C8.84957 5.47181 9.89792 5.03756 10.9911 5.03756C12.0842 5.03756 13.1325 5.47181 13.9055 6.24477C14.6785 7.01772 15.1127 8.06608 15.1127 9.15921V11.1742C15.1127 11.8154 15.2959 12.2733 15.6622 12.7313C16.0286 13.1893 16.4866 13.7388 16.4866 14.6547H5.49552Z" fill="url(#paint0_linear_0_193)" stroke="var(--stroke-0, #5A3E36)" stroke-width="1.28229" stroke-linecap="round" stroke-linejoin="round"/>
<path id="Vector_2" d="M9.61717 17.4025C9.61717 17.7669 9.76192 18.1163 10.0196 18.374C10.2772 18.6316 10.6267 18.7764 10.991 18.7764C11.3554 18.7764 11.7049 18.6316 11.9625 18.374C12.2202 18.1163 12.3649 17.7669 12.3649 17.4025" stroke="var(--stroke-0, #5A3E36)" stroke-width="1.28229" stroke-linecap="round" stroke-linejoin="round"/>
<path id="Vector_3" d="M15.5707 8.24329C16.5824 8.24329 17.4025 7.42314 17.4025 6.41145C17.4025 5.39975 16.5824 4.5796 15.5707 4.5796C14.559 4.5796 13.7388 5.39975 13.7388 6.41145C13.7388 7.42314 14.559 8.24329 15.5707 8.24329Z" fill="var(--fill-0, #F8AFC4)" stroke="var(--stroke-0, white)" stroke-width="0.915921" stroke-linecap="round" stroke-linejoin="round"/>
</g>
<defs>
<linearGradient id="paint0_linear_0_193" x1="5.49552" y1="5.03756" x2="5.49552" y2="14.6547" gradientUnits="userSpaceOnUse">
<stop stop-color="#FFD9A8"/>
<stop offset="1" stop-color="#F6C28B"/>
</linearGradient>
</defs>
</svg>
