<svg preserveAspectRatio="none" width="100%" height="100%" overflow="visible" style="display: block;" viewBox="0 0 21.9821 21.9821" fill="none" xmlns="http://www.w3.org/2000/svg">
<g id="IconBase">
<path id="Vector" d="M14.1968 6.41145H7.78533C5.76193 6.41145 4.12164 8.05173 4.12164 10.0751V12.8229C4.12164 14.8463 5.76193 16.4866 7.78533 16.4866H14.1968C16.2202 16.4866 17.8605 14.8463 17.8605 12.8229V10.0751C17.8605 8.05173 16.2202 6.41145 14.1968 6.41145Z" fill="url(#paint0_linear_0_186)" stroke="var(--stroke-0, #7C66C9)" stroke-width="1.1907" stroke-linecap="round" stroke-linejoin="round"/>
<path id="Vector_2" d="M10.991 3.66368V6.41145" stroke="var(--stroke-0, #7C66C9)" stroke-width="1.1907" stroke-linecap="round" stroke-linejoin="round"/>
<path id="Vector_3" d="M10.991 4.30483C11.5981 4.30483 12.0902 3.81274 12.0902 3.20572C12.0902 2.5987 11.5981 2.10662 10.991 2.10662C10.384 2.10662 9.89194 2.5987 9.89194 3.20572C9.89194 3.81274 10.384 4.30483 10.991 4.30483Z" fill="var(--fill-0, #7C66C9)"/>
<path id="Vector_4" d="M8.24329 12.2733C8.95148 12.2733 9.52558 11.6992 9.52558 10.9911C9.52558 10.2829 8.95148 9.70876 8.24329 9.70876C7.5351 9.70876 6.961 10.2829 6.961 10.9911C6.961 11.6992 7.5351 12.2733 8.24329 12.2733Z" fill="var(--fill-0, white)"/>
<path id="Vector_5" d="M13.7388 12.2733C14.447 12.2733 15.0211 11.6992 15.0211 10.9911C15.0211 10.2829 14.447 9.70876 13.7388 9.70876C13.0306 9.70876 12.4565 10.2829 12.4565 10.9911C12.4565 11.6992 13.0306 12.2733 13.7388 12.2733Z" fill="var(--fill-0, white)"/>
<path id="Vector_6" d="M8.70125 14.1968H13.2809" stroke="var(--stroke-0, white)" stroke-width="1.28229" stroke-linecap="round" stroke-linejoin="round"/>
</g>
<defs>
<linearGradient id="paint0_linear_0_186" x1="4.12164" y1="6.41145" x2="4.12164" y2="16.4866" gradientUnits="userSpaceOnUse">
<stop stop-color="#D6C7FF"/>
<stop offset="1" stop-color="#A993F5"/>
</linearGradient>
</defs>
</svg>
