<svg preserveAspectRatio="none" width="100%" height="100%" overflow="visible" style="display: block;" viewBox="0 0 21.9821 21.9821" fill="none" xmlns="http://www.w3.org/2000/svg">
<g id="IconBase">
<path id="Vector" d="M10.9911 18.3184C10.9911 18.3184 4.5796 14.38 4.5796 9.15921C4.58802 8.4186 4.82071 7.69794 5.24698 7.09225C5.67326 6.48657 6.2731 6.0243 6.96741 5.76642C7.66171 5.50853 8.41788 5.46714 9.13618 5.64769C9.85449 5.82825 10.5012 6.22228 10.9911 6.77781C11.4809 6.22228 12.1276 5.82825 12.8459 5.64769C13.5642 5.46714 14.3204 5.50853 15.0147 5.76642C15.709 6.0243 16.3088 6.48657 16.7351 7.09225C17.1614 7.69794 17.3941 8.4186 17.4025 9.15921C17.4025 14.38 10.9911 18.3184 10.9911 18.3184Z" fill="url(#paint0_linear_0_80)" stroke="var(--stroke-0, #5C8B3D)" stroke-width="1.1907" stroke-linecap="round" stroke-linejoin="round"/>
<path id="Vector_2" d="M5.03756 10.9911H6.86941L7.78533 9.15921L9.61717 12.8229L10.9911 10.0751L11.907 11.449H14.6547" stroke="var(--stroke-0, white)" stroke-width="1.28229" stroke-linecap="round" stroke-linejoin="round"/>
</g>
<defs>
<linearGradient id="paint0_linear_0_80" x1="4.5796" y1="5.53716" x2="4.5796" y2="18.3184" gradientUnits="userSpaceOnUse">
<stop stop-color="#C7E5B4"/>
<stop offset="1" stop-color="#7BAE52"/>
</linearGradient>
</defs>
</svg>
