<svg preserveAspectRatio="none" width="100%" height="100%" overflow="visible" style="display: block;" viewBox="0 0 21.9821 21.9821" fill="none" xmlns="http://www.w3.org/2000/svg">
<g id="IconBase">
<path id="Vector" d="M7.32737 3.66368V9.15921C7.32737 10.0751 6.77781 10.6247 5.95349 10.6247C5.12916 10.6247 4.5796 10.0751 4.5796 9.15921V3.66368" stroke="url(#paint0_linear_0_44)" stroke-width="1.64866" stroke-linecap="round" stroke-linejoin="round"/>
<path id="Vector_2" d="M5.95349 10.991V18.3184" stroke="url(#paint1_linear_0_44)" stroke-width="1.64866" stroke-linecap="round" stroke-linejoin="round"/>
<path id="Vector_3" d="M15.1127 9.61717C16.4279 9.61717 17.4941 8.18192 17.4941 6.41145C17.4941 4.64097 16.4279 3.20572 15.1127 3.20572C13.7975 3.20572 12.7313 4.64097 12.7313 6.41145C12.7313 8.18192 13.7975 9.61717 15.1127 9.61717Z" fill="url(#paint2_linear_0_44)"/>
<path id="Vector_4" d="M15.1127 9.61717V18.3184" stroke="var(--stroke-0, #E89A4F)" stroke-width="1.64866" stroke-linecap="round" stroke-linejoin="round"/>
</g>
<defs>
<linearGradient id="paint0_linear_0_44" x1="4.5796" y1="3.66368" x2="4.5796" y2="10.6247" gradientUnits="userSpaceOnUse">
<stop stop-color="#FFD9A8"/>
<stop offset="1" stop-color="#E89A4F"/>
</linearGradient>
<linearGradient id="paint1_linear_0_44" x1="5.95349" y1="10.991" x2="5.95349" y2="18.3184" gradientUnits="userSpaceOnUse">
<stop stop-color="#FFD9A8"/>
<stop offset="1" stop-color="#E89A4F"/>
</linearGradient>
<linearGradient id="paint2_linear_0_44" x1="12.7313" y1="3.20572" x2="12.7313" y2="9.61717" gradientUnits="userSpaceOnUse">
<stop stop-color="#FFD9A8"/>
<stop offset="1" stop-color="#E89A4F"/>
</linearGradient>
</defs>
</svg>
