<svg preserveAspectRatio="none" width="100%" height="100%" overflow="visible" style="display: block;" viewBox="0 0 15.9887 11.9869" fill="none" xmlns="http://www.w3.org/2000/svg">
<g id="Bow">
<path id="Vector" d="M7.99435 5.99345L1.60134 1.99782C1.06859 4.66157 1.06859 7.32533 1.60134 9.98908L7.99435 5.99345Z" fill="var(--fill-0, #F8AFC4)"/>
<path id="Vector_2" d="M7.99435 5.99345L14.3874 1.99782C14.9201 4.66157 14.9201 7.32533 14.3874 9.98908L7.99435 5.99345Z" fill="var(--fill-0, #F8AFC4)"/>
<path id="Vector_3" d="M7.99435 7.99127C8.87704 7.99127 9.5926 7.09681 9.5926 5.99345C9.5926 4.89009 8.87704 3.99563 7.99435 3.99563C7.11166 3.99563 6.3961 4.89009 6.3961 5.99345C6.3961 7.09681 7.11166 7.99127 7.99435 7.99127Z" fill="var(--fill-0, #E88FA9)"/>
<path id="Vector_4" d="M6.3961 3.19651C7.4616 2.66376 8.5271 2.66376 9.5926 3.19651" stroke="var(--stroke-0, #FBC8D6)" stroke-width="0.399563"/>
</g>
</svg>
