<svg preserveAspectRatio="none" width="100%" height="100%" overflow="visible" style="display: block;" viewBox="0 0 11.9869 11.9869" fill="none" xmlns="http://www.w3.org/2000/svg">
<g id="Flower" clip-path="url(#clip0_0_114)">
<path id="Vector" d="M5.99345 4.24536C6.95889 4.24536 7.74154 3.46271 7.74154 2.49727C7.74154 1.53183 6.95889 0.749181 5.99345 0.749181C5.02801 0.749181 4.24536 1.53183 4.24536 2.49727C4.24536 3.46271 5.02801 4.24536 5.99345 4.24536Z" fill="var(--fill-0, #F8AFC4)"/>
<path id="Vector_2" d="M5.99345 11.2377C6.95889 11.2377 7.74154 10.4551 7.74154 9.48963C7.74154 8.52419 6.95889 7.74154 5.99345 7.74154C5.02801 7.74154 4.24536 8.52419 4.24536 9.48963C4.24536 10.4551 5.02801 11.2377 5.99345 11.2377Z" fill="var(--fill-0, #F8AFC4)"/>
<path id="Vector_3" d="M2.49727 7.74154C3.46271 7.74154 4.24536 6.95889 4.24536 5.99345C4.24536 5.02801 3.46271 4.24536 2.49727 4.24536C1.53183 4.24536 0.749181 5.02801 0.749181 5.99345C0.749181 6.95889 1.53183 7.74154 2.49727 7.74154Z" fill="var(--fill-0, #F8AFC4)"/>
<path id="Vector_4" d="M9.48963 7.74154C10.4551 7.74154 11.2377 6.95889 11.2377 5.99345C11.2377 5.02801 10.4551 4.24536 9.48963 4.24536C8.52419 4.24536 7.74154 5.02801 7.74154 5.99345C7.74154 6.95889 8.52419 7.74154 9.48963 7.74154Z" fill="var(--fill-0, #F8AFC4)"/>
<path id="Vector_5" d="M5.99345 7.49181C6.82097 7.49181 7.49181 6.82097 7.49181 5.99345C7.49181 5.16593 6.82097 4.49509 5.99345 4.49509C5.16593 4.49509 4.49509 5.16593 4.49509 5.99345C4.49509 6.82097 5.16593 7.49181 5.99345 7.49181Z" fill="var(--fill-0, #FFE6CF)"/>
</g>
<defs>
<clipPath id="clip0_0_114">
<rect width="11.9869" height="11.9869" fill="white"/>
</clipPath>
</defs>
</svg>
