<svg preserveAspectRatio="none" width="100%" height="100%" overflow="visible" style="display: block;" viewBox="0 0 23.9922 23.9922" fill="none" xmlns="http://www.w3.org/2000/svg">
<g id="IconBase">
<path id="Vector" d="M3.49886 11.9961C3.49452 13.9561 4.16792 15.8574 5.40496 17.3778C6.642 18.8982 8.36662 19.9441 10.2866 20.3384C12.2066 20.7328 14.2038 20.4512 15.94 19.5415C17.6761 18.6317 19.0444 17.1498 19.8129 15.3467C20.5814 13.5436 20.703 11.5303 20.1569 9.6478C19.6109 7.76534 18.4309 6.12953 16.8168 5.01754C15.2027 3.90555 13.2538 3.38575 11.3004 3.54623C9.34691 3.7067 7.50899 4.53758 6.09802 5.89808" stroke="var(--stroke-0, #C7B0A4)" stroke-width="1.79941" stroke-linecap="round" stroke-linejoin="round"/>
<path id="Vector_2" d="M2.99903 3.9987V7.9974H6.99773" stroke="var(--stroke-0, #C7B0A4)" stroke-width="1.79941" stroke-linecap="round" stroke-linejoin="round"/>
<path id="Vector_3" d="M11.9961 7.49756V11.9961L14.9951 13.9954" stroke="var(--stroke-0, #C7B0A4)" stroke-width="1.79941" stroke-linecap="round" stroke-linejoin="round"/>
</g>
</svg>
