<svg preserveAspectRatio="none" width="100%" height="100%" overflow="visible" style="display: block;" viewBox="0 0 23.9922 23.9922" fill="none" xmlns="http://www.w3.org/2000/svg">
<g id="IconBase">
<path id="Vector" d="M3.9987 11.4963L11.9961 4.99837L19.9935 11.4963V18.9938C19.9935 19.5241 19.7829 20.0326 19.4079 20.4076C19.033 20.7825 18.5244 20.9932 17.9941 20.9932H5.99805C5.46779 20.9932 4.95925 20.7825 4.5843 20.4076C4.20935 20.0326 3.9987 19.5241 3.9987 18.9938V11.4963Z" fill="var(--fill-0, #FBD3DE)"/>
<path id="Vector_2" d="M3.9987 11.4963L11.9961 4.99837L19.9935 11.4963V18.9938C19.9935 19.5241 19.7829 20.0326 19.4079 20.4076C19.033 20.7825 18.5244 20.9932 17.9941 20.9932H5.99805C5.46779 20.9932 4.95925 20.7825 4.5843 20.4076C4.20935 20.0326 3.9987 19.5241 3.9987 18.9938V11.4963Z" stroke="var(--stroke-0, #F8AFC4)" stroke-width="1.79941" stroke-linecap="round" stroke-linejoin="round"/>
<path id="Vector_3" d="M9.99675 20.9932V15.9948H13.9954V20.9932" stroke="var(--stroke-0, #F8AFC4)" stroke-width="1.79941" stroke-linecap="round" stroke-linejoin="round"/>
</g>
</svg>
